<svg xmlns="http://www.w3.org/2000/svg" version="1.1" xmlns:xlink="http://www.w3.org/1999/xlink" xmlns:svgjs="http://svgjs.dev/svgjs" width="100%" height="100%" viewBox="0 0 1000 600"><rect width="1000" height="600" x="0" y="0" fill="#ffffff"/><g><rect width="333.3333333333333" height="333.3333333333333" rx="13.333333333333334" ry="13.333333333333334" y="264.019972674335" fill="#d63384" transform="matrix(0.5169609728963185,0,0,0.5169609728963185,0,77.35181065403097)" x="241.79774475097656"/><path d="M345.84541391705386 505.68665534005765L345.84541391705386 505.68665534005765Q333.2210081890653 505.68665534005765 325.5295322056892 500.07220240704476L325.5295322056892 500.07220240704476Q316.4101028751884 493.7762262856314 316.4101028751884 481.8657972312051L316.4101028751884 481.8657972312051Q316.4101028751884 468.3002404335207 327.8661831373477 456.8441601713613L327.8661831373477 456.8441601713613Q337.89431005238237 446.81603325632665 352.14139003846725 442.82425458140995L352.14139003846725 442.82425458140995Q363.82464469676006 439.5789060652175 382.51785215002855 437.92377832195933Q401.2110596032971 436.30110406386314 426.6870454554078 436.5282784599966L426.6870454554078 436.5282784599966Q433.24264945811655 428.80434899145854 437.4291490440048 423.8065122765222Q441.648102115055 418.7762220764239 444.6987297202759 415.0440712828026Q447.7169038403349 411.27946700401935 450.6377175049081 407.6771301510457Q453.5585311694813 404.04233981291014 457.29068196310266 398.9146891573261L457.29068196310266 398.9146891573261L470.4018899685201 381.38980716988686Q471.5702154343494 380.22148170405757 472.4789130188833 380.22148170405757L472.4789130188833 380.22148170405757Q475.5295406241042 380.22148170405757 475.5295406241042 383.01248142798306L475.5295406241042 383.01248142798306Q475.5295406241042 383.23965582411654 475.07519183183723 384.6676091712412L475.07519183183723 384.6676091712412L460.56848396445696 404.04233981291014Q459.17298410249424 405.9246419523018 455.8951821011399 410.11114153819005Q452.61738009978546 414.33009460924023 448.88522930616415 419.4577452648243Q445.15307851254283 424.61784940557027 441.5182881744073 429.2911512688874Q437.9159513214337 433.96445313220454 435.80647478590856 436.7554528561301L435.80647478590856 436.7554528561301Q441.648102115055 436.9826272522635 447.3599155035537 437.92377832195933Q453.10418237721433 438.86492939165515 458.7186353102273 440.03325485748445L458.7186353102273 440.03325485748445Q465.24178582777415 410.5979438156189 475.5295406241042 384.40798128994584L475.5295406241042 384.40798128994584Q477.1522148822004 380.44865610019104 479.2616914177255 375.6455402962262Q481.3711679532506 370.87487797742335 484.8761443507384 363.8649251824476L484.8761443507384 363.8649251824476Q485.59012102430074 362.2097974391895 491.17212047215173 358.964448922997L491.17212047215173 358.964448922997Q496.55939900903127 355.6866469216427 498.4417011484229 355.6866469216427L498.4417011484229 355.6866469216427Q500.518724198786 355.6866469216427 500.518724198786 357.79612345716777L500.518724198786 357.79612345716777Q500.518724198786 358.47764664556814 499.35039873295676 360.3599487849598L499.35039873295676 360.3599487849598Q479.2616914177255 393.7545850165801 466.4101112936034 442.1427313930095L466.4101112936034 442.1427313930095Q476.9250404860669 445.1609055130685 476.9250404860669 448.2115331182894L476.9250404860669 448.2115331182894Q476.9250404860669 450.54818404994796 474.3612151582749 450.54818404994796L474.3612151582749 450.54818404994796Q474.1340407621414 450.54818404994796 472.7385409001787 449.9640213170333Q471.310587553054 449.37985858411867 470.1422620872247 449.1526841879852L470.1422620872247 449.1526841879852Q468.292413432995 448.2115331182894 466.8969135710323 447.85454478150825Q465.4689602239076 447.4975564447271 465.0146114316407 447.2703820485936L465.0146114316407 447.2703820485936Q461.73680943028626 461.290287638545 459.98432123154237 472.38937956392317Q458.2318330327984 483.48847148930133 458.2318330327984 491.6667497501063L458.2318330327984 491.6667497501063Q458.2318330327984 499.6178536147778 460.56848396445696 499.6178536147778L460.56848396445696 499.6178536147778Q462.6779604999821 499.6178536147778 466.1829368974699 496.8268538908523L466.1829368974699 496.8268538908523Q469.91508769109123 493.7762262856314 470.6290643646536 493.7762262856314L470.6290643646536 493.7762262856314Q472.7385409001787 493.7762262856314 472.7385409001787 496.34005161342344L472.7385409001787 496.34005161342344Q472.7385409001787 498.90387694121546 468.292413432995 501.50015575416944L468.292413432995 501.50015575416944Q463.8462859658114 504.29115547809494 460.56848396445696 504.29115547809494L460.56848396445696 504.29115547809494Q451.7086825152516 504.29115547809494 451.7086825152516 489.5572732145812L451.7086825152516 489.5572732145812Q451.7086825152516 482.09297162733856 453.10418237721433 471.1236936426081Q454.4996822391771 460.1219621727157 457.55030984439804 445.8748821866308L457.55030984439804 445.8748821866308Q451.7086825152516 444.93373111693506 444.7960901757617 444.57674278015384Q437.9159513214337 444.25220792853463 429.9648474567622 443.99258004723924L429.9648474567622 443.99258004723924Q426.45987105927435 448.43870751442284 422.0137435920907 453.5988116551689Q417.56761612490703 458.72646231075294 411.4988143996271 465.02243843216627L411.4988143996271 465.02243843216627Q403.807338416251 473.4603445742667 398.64723427550507 478.5879952298507Q393.519583619921 483.7156458854348 389.8847932817854 486.8960874313034Q386.2824564288118 490.04407549201005 382.777480031324 492.6079008198021L382.777480031324 492.6079008198021Q365.25259804388475 505.68665534005765 345.84541391705386 505.68665534005765ZM343.05441419312837 496.5672260095569L343.05441419312837 496.5672260095569Q360.5792961805676 496.5672260095569 377.8445502867114 484.8839713512641L377.8445502867114 484.8839713512641Q383.23182882359094 481.1518205576428 390.3715955592143 474.7260304955817Q397.4789088096758 468.3002404335207 405.65718707048075 459.66761338044876L405.65718707048075 459.66761338044876Q408.7078146757016 456.3898113790944 412.21279107318946 452.7550210409588Q415.71776747067736 449.1526841879852 420.16389493786096 443.99258004723924L420.16389493786096 443.99258004723924L413.60829093515224 443.99258004723924Q393.519583619921 443.99258004723924 378.3313525641403 445.2907194537162Q363.1431215083596 446.58885886019317 352.8553667120296 449.37985858411867L352.8553667120296 449.37985858411867Q347.01373938288316 451.0025328422149 341.7562747866514 454.0531604474358Q336.49881019041965 457.10378805265674 332.53948500066485 460.83593884627805L332.53948500066485 460.83593884627805Q322.7060789966017 470.1825425729123 322.7060789966017 481.3789949537762L322.7060789966017 481.3789949537762Q322.7060789966017 488.64857563004733 329.26168299931044 493.0622496120691L329.26168299931044 493.0622496120691Q334.8761359323234 496.5672260095569 343.05441419312837 496.5672260095569Z " fill="#ffc800" transform="matrix(0.5169609728963185,0,0,0.5169609728963185,0,77.35181065403097)"/><path d="M686.37783589373 505.68665513523104L686.37783589373 505.68665513523104Q674.4061488692269 505.68665513523104 667.1123446923445 500.3624858415574L667.1123446923445 500.3624858415574Q658.4644165332561 494.39203010183087 658.4644165332561 483.09740506843076L658.4644165332561 483.09740506843076Q658.4644165332561 470.23322723747367 669.3281839359543 459.3694598347755L669.3281839359543 459.3694598347755Q678.8378273564465 449.8598164142833 692.3482916334565 446.07442437311647L692.3482916334565 446.07442437311647Q703.4274878515057 442.9968698681028 721.1542018003843 441.4273170705458Q738.8809157492631 439.888539818039 763.0397186136203 440.10396863338997L763.0397186136203 440.10396863338997Q769.2563787137477 432.77938891145743 773.2264240252155 428.0399549737364Q777.2272448817332 423.26974549096525 780.120146116446 419.73055781019957Q782.9822718061088 416.1605945843837 785.7520708606211 412.7445090838185Q788.5218699151334 409.29764803820325 792.061057595899 404.43511192028166L792.061057595899 404.43511192028166L804.4943777961543 387.8163175932079Q805.6022974179591 386.708397971403 806.4640126793629 386.708397971403L806.4640126793629 386.708397971403Q809.3569139140758 386.708397971403 809.3569139140758 389.35509484571475L809.3569139140758 389.35509484571475Q809.3569139140758 389.5705236610657 808.9260562833739 390.9246476432717L808.9260562833739 390.9246476432717L795.1693876459628 409.29764803820325Q793.8460392088069 411.0826296511112 790.7377091587431 415.05267496257875Q787.6293791086794 419.05349581909655 784.0901914279136 423.91603193701815Q780.5510037471479 428.80934359998986 777.1041427015326 433.2410220872095Q773.6880572009675 437.6727005744292 771.6876467727086 440.3193974487409L771.6876467727086 440.3193974487409Q777.2272448817332 440.53482626409186 782.6437408105572 441.4273170705458Q788.0910122844314 442.3198078769998 793.415181578105 443.4277274988047L793.415181578105 443.4277274988047Q799.6010661331825 415.5143081383308 809.3569139140758 390.6784432828706L809.3569139140758 390.6784432828706Q810.8956911665827 386.9238267867539 812.8961015948415 382.36904611933375Q814.8965120231004 377.8450409969637 818.2202708885151 371.1975232661341L818.2202708885151 371.1975232661341Q818.8973328796181 369.6279704685772 824.1907266282416 366.5504159635635L824.1907266282416 366.5504159635635Q829.2994671065643 363.44208591349974 831.0844487194722 363.44208591349974L831.0844487194722 363.44208591349974Q833.054083602681 363.44208591349974 833.054083602681 365.4424963417586L833.054083602681 365.4424963417586Q833.054083602681 366.0887827878115 831.946163980876 367.87376440071944L831.946163980876 367.87376440071944Q812.8961015948415 399.54180025730994 800.7089857549873 445.4281379270636L800.7089857549873 445.4281379270636Q810.6802623512316 448.2902636167263 810.6802623512316 451.18316485143913L810.6802623512316 451.18316485143913Q810.6802623512316 453.39900409504895 808.2489942922708 453.39900409504895L808.2489942922708 453.39900409504895Q808.0335654769199 453.39900409504895 806.710217039764 452.8450442841465Q805.356093057558 452.29108447324404 804.2481734357531 452.0756556578931L804.2481734357531 452.0756556578931Q802.4939673678954 451.18316485143913 801.1706189307395 450.84463385588765Q799.8164949485334 450.5061028603361 799.3856373178315 450.29067404498517L799.3856373178315 450.29067404498517Q796.2773072677677 463.5857095066442 794.6154278350604 474.1109459137909Q792.953548402353 484.63618232093756 792.953548402353 492.391619673572L792.953548402353 492.391619673572Q792.953548402353 499.9316282108555 795.1693876459628 499.9316282108555L795.1693876459628 499.9316282108555Q797.1697980742217 499.9316282108555 800.4935569396364 497.28493133654376L800.4935569396364 497.28493133654376Q804.0327446204021 494.39203010183087 804.7098066115051 494.39203010183087L804.7098066115051 494.39203010183087Q806.710217039764 494.39203010183087 806.710217039764 496.8232981607917L806.710217039764 496.8232981607917Q806.710217039764 499.25456621975246 802.4939673678954 501.7166098237634L802.4939673678954 501.7166098237634Q798.2777176960266 504.3633066980751 795.1693876459628 504.3633066980751L795.1693876459628 504.3633066980751Q786.7676638472756 504.3633066980751 786.7676638472756 490.3912092453131L786.7676638472756 490.3912092453131Q786.7676638472756 483.3128338837817 788.0910122844314 472.91069965683556Q789.4143607215873 462.47778988483924 792.3072619563001 448.9673256078293L792.3072619563001 448.9673256078293Q786.7676638472756 448.07483480137535 780.2124727515965 447.7363038058238Q773.6880572009675 447.4285483553225 766.148048663684 447.1823439949214L766.148048663684 447.1823439949214Q762.8242897982692 451.3985936667901 758.6080401264005 456.29190532976185Q754.3917904545318 461.1544414476834 748.6367635301563 467.1248971874099L748.6367635301563 467.1248971874099Q741.342959353274 475.1265389004454 736.4496476903022 479.989075018367Q731.5871115723806 484.85161113628857 728.1402505267654 487.86761455120194Q724.7241650262001 490.8528424210652 721.4004061607855 493.284110480026L721.4004061607855 493.284110480026Q704.7816118337116 505.68665513523104 686.37783589373 505.68665513523104ZM683.7311390194182 497.03872697614264L683.7311390194182 497.03872697614264Q700.349933346492 497.03872697614264 716.7225233131646 485.9595307580935L716.7225233131646 485.9595307580935Q721.8312637914873 482.42034307732774 728.6018837025174 476.3267851574007Q735.3417280684973 470.23322723747367 743.0971654211316 462.04693225413735L743.0971654211316 462.04693225413735Q745.9900666558445 458.93860220407356 749.3138255212593 455.49174115845824Q752.637584386674 452.0756556578931 756.8538340585427 447.1823439949214L756.8538340585427 447.1823439949214L750.6371739584151 447.1823439949214Q731.5871115723806 447.1823439949214 717.1841564889166 448.4133657969268Q702.7812014054527 449.6443875989323 693.0253536245596 452.29108447324404L693.0253536245596 452.29108447324404Q687.485755515535 453.8298617257509 682.5001172174127 456.7227629604637Q677.5144789192907 459.6156641951766 673.7598624231739 463.15485187594226L673.7598624231739 463.15485187594226Q664.4348722729826 472.0182088503816 664.4348722729826 482.6357718926787L664.4348722729826 482.6357718926787Q664.4348722729826 489.52949398390933 670.6515323731102 493.7149681107279L670.6515323731102 493.7149681107279Q675.9757016667838 497.03872697614264 683.7311390194182 497.03872697614264ZM847.4570386861449 496.1770117147388L847.4570386861449 496.1770117147388Q835.5161272066919 496.1770117147388 832.623225971979 481.7740566312749L832.623225971979 481.7740566312749Q832.4077971566281 479.773646203016 832.0692661610766 477.77323577475715Q831.7307351655251 475.7728253464983 831.7307351655251 473.77241491823935L831.7307351655251 473.77241491823935Q831.7307351655251 463.80113832199515 835.3930250264913 453.39900409504895Q839.0553148874576 442.9968698681028 844.3794841811313 433.02559327185855Q849.6728779297547 423.0543166756143 854.1045564169743 414.62181733187685L854.1045564169743 414.62181733187685Q858.3208060888431 406.8663799792425 863.5218732023162 399.2340448068086Q868.7537158608394 391.57093408932457 873.8316807941119 385.138845173846Q878.9404212724346 378.7375318034176 882.4796089532002 374.73671094689985L882.4796089532002 374.73671094689985Q888.2346358775759 368.30462203142133 893.5588051712494 365.534822976909Q898.8829744649231 362.7650239223967 903.0992241367918 362.7650239223967L903.0992241367918 362.7650239223967Q905.9613498264545 362.7650239223967 908.1771890700644 365.65792515710956L908.1771890700644 365.65792515710956Q910.6084571290252 368.76625520717334 910.6084571290252 371.62838089683606L910.6084571290252 371.62838089683606Q910.6084571290252 386.9238267867539 882.0487513224983 422.8081123152132L882.0487513224983 422.8081123152132Q870.7233507440482 436.9956385833262 860.3212165171019 448.4133657969268Q849.9190822901558 459.8310930105275 840.1632345092625 468.9098788003178L840.1632345092625 468.9098788003178Q839.9478056939115 470.6948604132257 839.8247035137109 472.572168661284Q839.7016013335104 474.44947690934237 839.7016013335104 476.2344585222503L839.7016013335104 476.2344585222503Q839.7016013335104 483.74369151448366 842.1636449375213 487.6214101908008Q844.5949129964822 491.4991288671181 850.7807975515597 491.4991288671181L850.7807975515597 491.4991288671181Q856.9974576516872 491.4991288671181 865.306854815224 484.2976513253861Q873.6162519787609 477.09617378365414 882.4796089532002 464.0473426823962L882.4796089532002 464.0473426823962Q883.1566709443033 462.9394230605913 884.0183862057071 462.6932187001902L884.0183862057071 462.6932187001902Q885.3725101879131 462.6932187001902 885.3725101879131 464.26277149774717L885.3725101879131 464.26277149774717Q885.3725101879131 465.3706911195521 884.9108770121611 466.016977565605L884.9108770121611 466.016977565605Q881.8025469620973 471.3411468592786 877.9248282857801 476.2344585222503Q874.0471096094628 481.0969946401719 869.1845734915413 485.5286731273915L869.1845734915413 485.5286731273915Q863.6449753825167 490.3912092453131 858.2284794536927 493.284110480026Q852.7812079798185 496.1770117147388 847.4570386861449 496.1770117147388ZM840.5940921399643 464.0473426823962L840.5940921399643 464.0473426823962Q846.810752240092 458.72317338872256 855.3355782189799 448.62879461227783Q863.8604041978676 438.5651913808831 873.40082316341 425.02395155882306L873.40082316341 425.02395155882306Q894.8821536084054 395.35632613049137 899.098403280274 382.0612906688324L899.098403280274 382.0612906688324Q901.0988137085329 375.62920175335387 901.0988137085329 372.52087170329L901.0988137085329 372.52087170329Q901.0988137085329 368.30462203142133 898.2059124738201 368.30462203142133L898.2059124738201 368.30462203142133Q891.7738235583415 368.30462203142133 882.4796089532002 380.70716668662635L882.4796089532002 380.70716668662635Q877.1554396595267 387.8163175932079 870.0770642979952 398.7724116310565Q862.9679133914136 409.7592812139553 856.3203956605842 422.59268349986223L856.3203956605842 422.59268349986223Q848.5649583079497 437.45727175907825 845.3643016227355 447.1823439949214Q842.1636449375213 456.9381917758147 840.5940921399643 464.0473426823962ZM880.2637697095905 493.961172471129L880.2637697095905 493.961172471129Q873.40082316341 493.961172471129 873.40082316341 486.42116393384555L873.40082316341 486.42116393384555Q873.40082316341 475.1265389004454 884.4800193814591 458.72317338872256L884.4800193814591 458.72317338872256Q895.3437867841574 442.53523669235074 905.9613498264545 438.7806201962341L905.9613498264545 438.7806201962341Q907.9617602547133 438.1035582051311 909.7467418676213 437.6727005744292Q911.5009479354791 437.21106739867713 913.285929548387 437.21106739867713L913.285929548387 437.21106739867713Q921.2567957163724 437.21106739867713 924.7959833971381 442.7506655077017L924.7959833971381 442.7506655077017Q925.4730453882411 443.6431563141557 925.4730453882411 444.32021830525866L925.4730453882411 444.32021830525866Q925.4730453882411 444.75107593596056 923.9034925906841 444.96650475131156L923.9034925906841 444.96650475131156Q922.5801441535283 445.2127091117126 921.6876533470744 446.5360575488685L921.6876533470744 446.5360575488685Q916.3942595984507 455.1839857079569 916.3942595984507 472.44906648108355L916.3942595984507 472.44906648108355Q916.3942595984507 488.42157436210437 923.2572061446313 488.42157436210437L923.2572061446313 488.42157436210437Q927.9043134472018 488.42157436210437 936.7676704216412 478.6657265812111L936.7676704216412 478.6657265812111Q938.0910188587972 477.34237814405526 940.5222869177579 474.0186192786405Q942.9843305217688 470.6948604132257 945.4155985807296 467.2479993676104Q947.8468666396903 463.80113832199515 948.7393574461443 462.6932187001902L948.7393574461443 462.6932187001902Q949.3856438921972 462.04693225413735 949.8472770679492 462.04693225413735L949.8472770679492 462.04693225413735Q950.7397678744032 462.04693225413735 950.7397678744032 463.5857095066442L950.7397678744032 463.5857095066442Q950.7397678744032 464.69362912844906 949.3856438921972 466.694039556708L949.3856438921972 466.694039556708Q944.5231077742757 474.44947690934237 938.306447674148 481.7740566312749Q932.1205631190707 489.06786080815726 927.6888846318509 491.28370005176714L927.6888846318509 491.28370005176714Q923.6880637753331 493.284110480026 919.7180184638656 493.284110480026L919.7180184638656 493.284110480026Q906.1767786418055 493.284110480026 906.1767786418055 474.2340480939914L906.1767786418055 474.2340480939914Q906.1767786418055 472.66449529643444 906.299880822006 471.0026158637271Q906.4229830022066 469.3407364310197 906.6384118175575 467.58653036316196L906.6384118175575 467.58653036316196Q891.5583947429906 493.961172471129 880.2637697095905 493.961172471129ZM884.0183862057071 487.3136547402995L884.0183862057071 487.3136547402995Q886.480429809718 487.3136547402995 889.8041886751329 484.5438556857872Q893.1279475405476 481.7740566312749 896.6671352213133 477.09617378365414L896.6671352213133 477.09617378365414Q901.9913045149868 470.0177984221227 906.6384118175575 462.04693225413735Q911.2855191201281 454.07606608615197 914.8247068008939 444.75107593596056L914.8247068008939 444.75107593596056Q914.1784203548409 444.5356471206096 912.824296372635 444.5356471206096L912.824296372635 444.5356471206096Q903.7455105828446 444.5356471206096 894.4512959777034 455.8302721540098L894.4512959777034 455.8302721540098Q880.9408317006935 472.0182088503816 880.9408317006935 482.6357718926787L880.9408317006935 482.6357718926787Q880.9408317006935 487.3136547402995 884.0183862057071 487.3136547402995ZM977.3298387977212 494.6074589171818L977.3298387977212 494.6074589171818Q964.6810897821151 494.6074589171818 964.6810897821151 478.6657265812111L964.6810897821151 478.6657265812111Q964.6810897821151 471.5565756746296 967.0200312059254 464.90905794380006Q969.3281970846857 458.26154021297054 972.4365271347496 452.72194210394593L972.4365271347496 452.72194210394593Q964.6810897821151 459.6156641951766 956.1562638032273 469.6792674265712Q947.6314378243395 479.773646203016 939.414367295953 492.17619085822105L939.414367295953 492.17619085822105Q938.0910188587972 494.1766012864799 937.4447324127442 494.1766012864799L937.4447324127442 494.1766012864799Q935.4443219844853 494.1766012864799 935.4443219844853 490.1757804299622L935.4443219844853 490.1757804299622Q935.4443219844853 489.2832896235082 935.8751796151872 488.42157436210437L935.8751796151872 488.42157436210437Q938.306447674148 482.42034307732774 940.7684912781589 474.57257908954296Q943.1997593371199 466.694039556708 945.6310273960806 456.0457009693607L945.6310273960806 456.0457009693607Q946.0618850267825 453.8298617257509 946.5235182025345 451.6140224821411Q946.9543758332364 449.3981832385312 947.8468666396903 445.8589955577655L947.8468666396903 445.8589955577655Q948.2777242703922 444.5356471206096 950.9551966897542 442.7506655077017L950.9551966897542 442.7506655077017Q953.171035933364 441.2118882551949 955.3868751769738 441.2118882551949L955.3868751769738 441.2118882551949Q956.9256524294807 441.2118882551949 956.9256524294807 442.53523669235074L956.9256524294807 442.53523669235074Q956.9256524294807 443.6431563141557 954.2789555551689 452.0756556578931Q951.6014831358071 460.47737945658037 946.5235182025345 476.2344585222503L946.5235182025345 476.2344585222503Q947.8468666396903 474.44947690934237 952.0631163115592 469.6792674265712Q956.2793659834277 464.90905794380006 963.1423125296083 457.39982495156676L963.1423125296083 457.39982495156676L976.8682056219692 442.3198078769998Q978.4377584195262 440.781030624493 980.4073933027349 440.781030624493L980.4073933027349 440.781030624493Q985.5161337810576 440.781030624493 985.5161337810576 445.8589955577655L985.5161337810576 445.8589955577655Q985.5161337810576 446.96691517957044 984.6236429746036 448.53646797712736L984.6236429746036 448.53646797712736Q972.2210983193985 468.9098788003178 972.2210983193985 480.88156582482094L972.2210983193985 480.88156582482094Q972.2210983193985 489.2832896235082 980.1919644873839 489.2832896235082L980.1919644873839 489.2832896235082Q985.9469914117595 489.2832896235082 993.486999949043 482.8819762530798L993.486999949043 482.8819762530798Q996.5953299991068 480.41993264906887 998.934271422917 477.4347047792056Q1001.2424373016773 474.44947690934237 1003.9199097210393 470.9102892285767L1003.9199097210393 470.9102892285767Q1008.5670170236098 464.4782003130981 1009.2133034696627 464.4782003130981L1009.2133034696627 464.4782003130981Q1009.8903654607658 464.4782003130981 1009.8903654607658 465.801548750254L1009.8903654607658 465.801548750254Q1009.8903654607658 467.1248971874099 1008.5670170236098 469.58694079142083L1008.5670170236098 469.58694079142083Q993.486999949043 494.6074589171818 977.3298387977212 494.6074589171818ZM1006.3511777800001 493.961172471129L1006.3511777800001 493.961172471129Q999.4882312338196 493.961172471129 999.4882312338196 486.42116393384555L999.4882312338196 486.42116393384555Q999.4882312338196 475.1265389004454 1010.5674274518688 458.72317338872256L1010.5674274518688 458.72317338872256Q1021.4004193095169 442.53523669235074 1032.0487578968641 438.7806201962341L1032.0487578968641 438.7806201962341Q1034.049168325123 438.1035582051311 1035.803374392981 437.6727005744292Q1037.5883560058887 437.21106739867713 1039.3733376187965 437.21106739867713L1039.3733376187965 437.21106739867713Q1047.3442037867821 437.21106739867713 1050.8833914675477 442.7506655077017L1050.8833914675477 442.7506655077017Q1051.5604534586505 443.6431563141557 1051.5604534586505 444.32021830525866L1051.5604534586505 444.32021830525866Q1051.5604534586505 444.75107593596056 1049.9909006610937 444.96650475131156L1049.9909006610937 444.96650475131156Q1048.667552223938 445.2127091117126 1047.7750614174838 446.5360575488685L1047.7750614174838 446.5360575488685Q1042.4508921238103 455.1839857079569 1042.4508921238103 472.44906648108355L1042.4508921238103 472.44906648108355Q1042.4508921238103 488.42157436210437 1049.344614215041 488.42157436210437L1049.344614215041 488.42157436210437Q1053.9917215176115 488.42157436210437 1062.8550784920508 478.6657265812111L1062.8550784920508 478.6657265812111Q1064.1784269292066 477.34237814405526 1066.6096949881676 474.0186192786405Q1069.0409630471281 470.6948604132257 1071.503006651139 467.2479993676104Q1073.9342747101 463.80113832199515 1074.8267655165541 462.6932187001902L1074.8267655165541 462.6932187001902Q1075.4730519626069 462.04693225413735 1075.9346851383589 462.04693225413735L1075.9346851383589 462.04693225413735Q1076.7964003997627 462.04693225413735 1076.7964003997627 463.5857095066442L1076.7964003997627 463.5857095066442Q1076.7964003997627 464.69362912844906 1075.4730519626069 466.694039556708L1075.4730519626069 466.694039556708Q1070.6105158446853 474.44947690934237 1064.3938557445576 481.7740566312749Q1058.2079711894803 489.06786080815726 1053.7762927022604 491.28370005176714L1053.7762927022604 491.28370005176714Q1049.7754718457427 493.284110480026 1045.774650989225 493.284110480026L1045.774650989225 493.284110480026Q1032.2641867122152 493.284110480026 1032.2641867122152 474.2340480939914L1032.2641867122152 474.2340480939914Q1032.2641867122152 472.66449529643444 1032.3872888924157 471.0026158637271Q1032.479615527566 469.3407364310197 1032.7258198879672 467.58653036316196L1032.7258198879672 467.58653036316196Q1017.6458028134001 493.961172471129 1006.3511777800001 493.961172471129ZM1010.1057942761166 487.3136547402995L1010.1057942761166 487.3136547402995Q1012.5370623350775 487.3136547402995 1015.8608212004923 484.5438556857872Q1019.184580065907 481.7740566312749 1022.7545432917228 477.09617378365414L1022.7545432917228 477.09617378365414Q1028.0479370403464 470.0177984221227 1032.7258198879672 462.04693225413735Q1037.3729271905377 454.07606608615197 1040.9121148713034 444.75107593596056L1040.9121148713034 444.75107593596056Q1040.2350528802003 444.5356471206096 1038.9117044430445 444.5356471206096L1038.9117044430445 444.5356471206096Q1029.8329186532542 444.5356471206096 1020.538704048113 455.8302721540098L1020.538704048113 455.8302721540098Q1006.997464226053 472.0182088503816 1006.997464226053 482.6357718926787L1006.997464226053 482.6357718926787Q1006.997464226053 487.3136547402995 1010.1057942761166 487.3136547402995ZM1073.718845894749 425.2701559192241L1073.718845894749 425.2701559192241Q1073.0417839036459 425.2701559192241 1073.0417839036459 423.4851743063162L1073.0417839036459 423.4851743063162Q1073.0417839036459 415.94516576903277 1072.7032529080948 409.8516078491057Q1072.364721912543 403.75804992917864 1071.9338642818411 399.326371441959L1071.9338642818411 399.326371441959Q1076.5809715844116 398.68008499590616 1078.5813820126705 398.68008499590616L1078.5813820126705 398.68008499590616Q1079.0122396433726 398.68008499590616 1079.2584440037735 398.89551381125705L1079.2584440037735 398.89551381125705L1079.2584440037735 399.326371441959Q1079.2584440037735 400.895924239516 1078.919913008222 404.0965809247302Q1078.5813820126705 407.2972376099444 1077.6888912062166 412.40597808826703L1077.6888912062166 412.40597808826703Q1076.15011395371 422.59268349986223 1075.0421943319047 424.37766511277016L1075.0421943319047 424.37766511277016Q1074.8267655165541 425.2701559192241 1073.718845894749 425.2701559192241ZM1107.1718633642477 498.3928509583486L1107.1718633642477 498.3928509583486Q1096.7389535922512 498.3928509583486 1088.337229793564 490.8528424210652L1088.337229793564 490.8528424210652Q1079.6893016344757 483.09740506843076 1079.6893016344757 473.1261284721865L1079.6893016344757 473.1261284721865Q1079.6893016344757 466.694039556708 1083.2284893152414 466.694039556708L1083.2284893152414 466.694039556708Q1085.4443285588509 466.694039556708 1087.8755966178119 469.8023696067718L1087.8755966178119 469.8023696067718Q1090.9839266678755 467.1248971874099 1098.954792835861 453.183575279698L1098.954792835861 453.183575279698Q1102.524756061677 447.1823439949214 1106.7102301884954 440.8733572596434Q1110.926479860364 434.56437052436536 1115.8197915233359 430.25579421734625Q1120.6823276412574 425.916442365277 1126.006496934931 425.916442365277L1126.006496934931 425.916442365277Q1130.2227466067998 425.916442365277 1133.0848722964624 427.9168527935359L1133.0848722964624 427.9168527935359Q1136.408631161877 429.91726322179477 1136.408631161877 432.77938891145743L1136.408631161877 432.77938891145743Q1136.408631161877 434.56437052436536 1131.3306662286047 434.56437052436536L1131.3306662286047 434.56437052436536Q1126.437354565633 434.56437052436536 1122.0056760784132 437.6727005744292L1122.0056760784132 437.6727005744292Q1117.7894264065444 440.99645943984393 1117.7894264065444 445.8589955577655L1117.7894264065444 445.8589955577655Q1117.7894264065444 447.64397717067345 1118.4664883976475 449.6443875989323L1118.4664883976475 449.6443875989323L1124.006086506672 464.0473426823962Q1125.7910681195804 468.2328168092148 1126.3450279304825 472.110535485532Q1126.898987741385 475.9882541618492 1126.898987741385 479.096584211913L1126.898987741385 479.096584211913Q1139.732390027292 477.09617378365414 1148.8111758170824 466.016977565605L1148.8111758170824 466.016977565605Q1149.2728089928346 465.3706911195521 1149.9190954388873 465.3706911195521L1149.9190954388873 465.3706911195521Q1151.2732194210932 465.3706911195521 1151.2732194210932 467.1248971874099L1151.2732194210932 467.1248971874099Q1151.2732194210932 467.58653036316196 1151.1501172408925 468.01738799386385Q1151.027015060692 468.47902116961586 1150.8115862453412 468.9098788003178L1150.8115862453412 468.9098788003178Q1143.517782068459 480.41993264906887 1126.221925750282 483.74369151448366L1126.221925750282 483.74369151448366Q1125.544863759179 487.3136547402995 1123.7906576913215 489.9603516146112Q1122.0056760784132 492.60704848892294 1119.5744080194527 494.39203010183087L1119.5744080194527 494.39203010183087Q1114.034809910428 498.3928509583486 1107.1718633642477 498.3928509583486ZM1119.1435503887506 480.2045038337179L1119.1435503887506 480.2045038337179L1119.1435503887506 477.9886645901081Q1119.1435503887506 475.55739653114733 1118.127957402096 471.3411468592786Q1117.1431399604917 467.1248971874099 1115.1427295322328 460.47737945658037L1115.1427295322328 460.47737945658037Q1113.142319103974 453.8298617257509 1112.1575016623697 448.4133657969268Q1111.141908675715 442.9968698681028 1111.3881130361162 441.4273170705458L1111.3881130361162 441.4273170705458Q1105.6023105666904 450.75230722073724 1099.9703858225157 459.0617043842741Q1094.3076855332904 467.371101547811 1089.8760070460708 472.44906648108355L1089.8760070460708 472.44906648108355Q1096.7389535922512 475.7728253464983 1104.4943909448857 477.77323577475715Q1112.2498282975203 479.773646203016 1119.1435503887506 480.2045038337179ZM1104.2789621295346 492.17619085822105L1104.2789621295346 492.17619085822105Q1108.7106406167545 492.17619085822105 1113.0499924688233 490.5143114255137Q1117.3585687758427 488.8524319928063 1118.8973460283496 484.4207535055866L1118.8973460283496 484.4207535055866Q1108.9260694321051 484.4207535055866 1100.4012434532174 482.42034307732774Q1091.8764174743296 480.41993264906887 1086.767676996007 476.2344585222503L1086.767676996007 476.2344585222503L1085.4443285588509 477.5578069594062Q1091.4455598436275 492.17619085822105 1104.2789621295346 492.17619085822105ZM1246.985164527018 499.0391374044015L1246.985164527018 499.0391374044015Q1234.582619871813 499.0391374044015 1234.582619871813 487.7445123710014L1234.582619871813 487.7445123710014Q1234.582619871813 477.09617378365414 1244.9847540987591 457.83068258226865L1244.9847540987591 457.83068258226865Q1246.092673720564 455.8302721540098 1247.662226518121 453.183575279698Q1249.201003770628 450.5061028603361 1252.5247626360426 445.0896069315121Q1255.8485215014575 439.6731110026881 1262.0651816015848 429.4556300460427L1262.0651816015848 429.4556300460427Q1282.4385924247754 395.78718376119326 1282.4385924247754 377.1679790058607L1282.4385924247754 377.1679790058607Q1282.4385924247754 361.6571043005918 1266.2506557284037 361.6571043005918L1266.2506557284037 361.6571043005918Q1247.877655333472 361.6571043005918 1219.7180316125969 383.1692102906373L1219.7180316125969 383.1692102906373Q1194.9129423021868 402.0038438613209 1182.2949688316307 420.59227307160336L1182.2949688316307 420.59227307160336Q1173.8624694878936 433.02559327185855 1173.8624694878936 441.2118882551949L1173.8624694878936 441.2118882551949Q1173.8624694878936 448.2902636167263 1181.8333356558787 448.2902636167263L1181.8333356558787 448.2902636167263Q1184.0491748994887 448.2902636167263 1189.3733441931622 446.5360575488685L1189.3733441931622 446.5360575488685Q1194.6975134868358 444.75107593596056 1196.0208619239918 444.75107593596056L1196.0208619239918 444.75107593596056Q1198.4521299829526 444.75107593596056 1198.4521299829526 446.07442437311647L1198.4521299829526 446.07442437311647Q1198.4521299829526 449.18275442318026 1190.696692630318 451.86022684254215L1190.696692630318 451.86022684254215Q1184.2646037148397 454.07606608615197 1180.2945584033719 454.07606608615197L1180.2945584033719 454.07606608615197Q1168.107442563518 454.07606608615197 1168.107442563518 441.2118882551949L1168.107442563518 441.2118882551949Q1168.107442563518 423.91603193701815 1186.7266473188506 403.1117634831258L1186.7266473188506 403.1117634831258Q1194.9129423021868 394.0022021482854 1205.0073210786318 385.6928049847485Q1215.0709243100264 377.3834078212116 1227.7196733256324 369.8741748289783L1227.7196733256324 369.8741748289783Q1251.8477006449396 355.6866485608653 1268.7126993324146 355.6866485608653L1268.7126993324146 355.6866485608653Q1293.9486462735263 355.6866485608653 1293.9486462735263 377.3834078212116L1293.9486462735263 377.3834078212116Q1293.9486462735263 387.1392556021049 1288.193619349151 399.78800461771107L1288.193619349151 399.78800461771107Q1285.085289299087 406.6509511638915 1280.8998151722685 414.74491951207744Q1276.6835655003997 422.8081123152132 1270.9285385760245 432.34853128075554L1270.9285385760245 432.34853128075554Q1266.2506557284037 440.3193974487409 1261.388119610482 448.1979369815759Q1256.5255834925604 456.0457009693607 1251.8477006449396 464.0473426823962L1251.8477006449396 464.0473426823962Q1243.661405661603 477.77323577475715 1243.661405661603 486.6365927491965L1243.661405661603 486.6365927491965Q1243.661405661603 493.961172471129 1249.8780657617308 493.961172471129L1249.8780657617308 493.961172471129Q1257.3872987539642 493.961172471129 1270.682334215623 484.63618232093756L1270.682334215623 484.63618232093756Q1305.0278424915755 460.93901263233244 1341.8353943715392 415.94516576903277L1341.8353943715392 415.94516576903277Q1342.0508231868898 415.5143081383308 1344.0512336151487 413.17536671452046Q1346.0208684983577 410.86720083576023 1348.4829121023686 407.9742996010474L1348.4829121023686 407.9742996010474Q1351.5604666073823 405.54303154208657 1354.884225472797 405.54303154208657L1354.884225472797 405.54303154208657Q1357.3462690768079 405.54303154208657 1357.3462690768079 407.54344197034544L1357.3462690768079 407.54344197034544Q1357.3462690768079 409.0822192228523 1355.776716279251 411.51348728181307L1355.776716279251 411.51348728181307Q1334.2953858342557 448.9673256078293 1334.2953858342557 473.34155728753746L1334.2953858342557 473.34155728753746Q1334.2953858342557 489.7449227992603 1342.943313993344 489.7449227992603L1342.943313993344 489.7449227992603Q1350.2371181702265 489.7449227992603 1362.6396628254315 476.66531615295224L1362.6396628254315 476.66531615295224Q1373.0725725974276 465.5861199349031 1377.935108715349 456.7227629604637L1377.935108715349 456.7227629604637Q1392.799696974565 429.91726322179477 1392.799696974565 415.7297369536818L1392.799696974565 415.7297369536818Q1392.799696974565 414.62181733187685 1392.338063798813 412.7445090838185Q1391.9072061681113 410.86720083576023 1391.2301441770082 408.65136159215035L1391.2301441770082 408.65136159215035Q1390.5838577309555 406.43552234854053 1390.029897920053 404.77364291583314Q1389.4759381091503 403.1117634831258 1389.4759381091503 401.32678187021787L1389.4759381091503 401.32678187021787Q1389.4759381091503 393.7867733329344 1394.3384742270719 393.7867733329344L1394.3384742270719 393.7867733329344Q1396.985171101384 393.7867733329344 1398.9855815296428 399.54180025730994L1398.9855815296428 399.54180025730994Q1400.5551343271995 403.5426211138277 1400.5551343271995 407.54344197034544L1400.5551343271995 407.54344197034544Q1400.5551343271995 408.65136159215035 1400.5551343271995 409.8516078491057Q1400.5551343271995 411.0826296511112 1400.3089299667986 412.621406903618L1400.3089299667986 412.621406903618Q1401.4168495886033 414.83724614722786 1404.3097508233163 415.94516576903277L1404.3097508233163 415.94516576903277Q1407.202652058029 416.8376565754867 1407.202652058029 418.37643382799354L1407.202652058029 418.37643382799354Q1407.202652058029 420.16141544090146 1404.740608454018 420.16141544090146L1404.740608454018 420.16141544090146Q1402.0939115797064 420.16141544090146 1398.9855815296428 418.8380670037456L1398.9855815296428 418.8380670037456Q1396.5543134706818 429.24020123069175 1392.6765947943645 439.211477826936Q1388.7988761180472 449.18275442318026 1383.043849193672 459.1540310194245L1383.043849193672 459.1540310194245Q1376.8271890935443 470.0177984221227 1369.5333849166618 477.9886645901081Q1362.2088051947294 485.9595307580935 1354.4533678420948 491.06827123641614L1354.4533678420948 491.06827123641614Q1348.2367077419672 495.06909209293394 1341.5891900111378 495.06909209293394L1341.5891900111378 495.06909209293394Q1326.0783153058692 495.06909209293394 1326.0783153058692 475.7728253464983L1326.0783153058692 475.7728253464983Q1326.0783153058692 463.5857095066442 1335.8341630867626 431.91767365005364L1335.8341630867626 431.91767365005364Q1321.6466368186493 446.07442437311647 1311.2445025917032 456.50733414511274Q1300.842368364757 466.90946837205894 1297.2724051389414 470.0177984221227L1297.2724051389414 470.0177984221227Q1283.1156544158785 482.8819762530798 1272.2518870131803 489.7449227992603Q1261.388119610482 496.6078693454407 1254.3097442489507 498.14664659794755L1254.3097442489507 498.14664659794755Q1252.5247626360426 498.3928509583486 1250.6474543879842 498.70060640885004Q1248.770146139926 499.0391374044015 1246.985164527018 499.0391374044015ZM1417.820215100326 494.6074589171818L1417.820215100326 494.6074589171818Q1410.526410923444 494.6074589171818 1404.9868128144194 490.3912092453131Q1399.4472147053948 486.20573511849454 1399.4472147053948 476.2344585222503L1399.4472147053948 476.2344585222503Q1399.4472147053948 470.23322723747367 1402.0939115797064 463.24717851109267Q1404.740608454018 456.29190532976185 1409.2953891214383 450.0752452296342Q1413.8501697888587 443.85858512950665 1419.3897678978833 439.888539818039Q1424.929366006908 435.8877189615213 1430.6843929312831 435.8877189615213L1430.6843929312831 435.8877189615213Q1432.900232174893 435.8877189615213 1434.5621116076004 437.45727175907825Q1436.2239910403077 438.99604901158506 1436.2239910403077 442.10437906164884L1436.2239910403077 442.10437906164884Q1436.2239910403077 448.9673256078293 1425.7910812683117 458.72317338872256L1425.7910812683117 458.72317338872256Q1421.6056071414928 462.6932187001902 1417.050826474073 465.801548750254Q1412.4960458066525 468.9098788003178 1408.7414293105358 470.23322723747367L1408.7414293105358 470.23322723747367Q1407.848938504082 473.1261284721865 1407.848938504082 476.8807449683032L1407.848938504082 476.8807449683032Q1407.848938504082 481.98948544662585 1410.2802065630426 486.20573511849454Q1412.7422501670535 490.3912092453131 1418.0356439156772 490.3912092453131L1418.0356439156772 490.3912092453131Q1424.6831616465065 490.3912092453131 1430.2227597555311 486.6365927491965Q1435.7623578645557 482.8819762530798 1440.4402407121765 477.4347047792056Q1445.0873480147475 472.0182088503816 1448.6265356955128 467.371101547811L1448.6265356955128 467.371101547811Q1450.1653129480196 465.15526230420113 1451.7348657455768 465.15526230420113L1451.7348657455768 465.15526230420113Q1452.6273565520305 465.15526230420113 1452.6273565520305 466.016977565605L1452.6273565520305 466.016977565605Q1452.6273565520305 466.478610741357 1452.3811521916296 467.0325705522595Q1452.165723376279 467.58653036316196 1451.950294560928 468.01738799386385L1451.950294560928 468.01738799386385Q1448.195678064811 473.34155728753746 1443.3023664018392 479.5582173876651Q1438.4398302839177 485.74410194274253 1432.22317018379 490.1757804299622Q1426.0372856287127 494.6074589171818 1417.820215100326 494.6074589171818ZM1410.2802065630426 465.801548750254L1410.2802065630426 465.801548750254Q1416.0660090324686 463.3702806912932 1422.251893587546 457.15362059116563L1422.251893587546 457.15362059116563Q1429.5764733094784 450.0752452296342 1429.5764733094784 444.75107593596056L1429.5764733094784 444.75107593596056Q1429.5764733094784 442.10437906164884 1426.8990008901164 442.10437906164884L1426.8990008901164 442.10437906164884Q1423.3598132093507 442.10437906164884 1417.1739286542734 452.29108447324404L1417.1739286542734 452.29108447324404Q1411.6343305452488 460.7235838169815 1410.2802065630426 465.801548750254ZM1449.519026501967 502.57832508516725L1449.519026501967 502.57832508516725Q1440.6556695275276 502.57832508516725 1440.6556695275276 499.25456621975246L1440.6556695275276 499.25456621975246Q1440.6556695275276 497.9312177825966 1441.9790179646834 497.9312177825966L1441.9790179646834 497.9312177825966Q1442.8715087711375 497.9312177825966 1445.0873480147475 498.60827977369956L1445.0873480147475 498.60827977369956Q1447.518616073708 499.5007705801536 1449.519026501967 499.5007705801536L1449.519026501967 499.5007705801536Q1459.705731913562 499.5007705801536 1469.2461508791043 488.1753700017033L1469.2461508791043 488.1753700017033Q1473.2161961905722 483.5282626991327 1476.1090974252847 478.5426244010106Q1478.9712231149479 473.55698610288846 1481.1870623585573 468.01738799386385L1481.1870623585573 468.01738799386385Q1485.4033120304262 458.0461113976196 1485.4033120304262 446.07442437311647L1485.4033120304262 446.07442437311647Q1485.4033120304262 438.7806201962341 1482.0795531650115 438.7806201962341L1482.0795531650115 438.7806201962341Q1474.785748988129 438.7806201962341 1462.598633148275 458.93860220407356L1462.598633148275 458.93860220407356Q1451.0578037544738 477.77323577475715 1451.0578037544738 487.06745037989833L1451.0578037544738 487.06745037989833Q1451.0578037544738 489.52949398390933 1452.6273565520305 490.8528424210652L1452.6273565520305 490.8528424210652Q1454.3815626198884 492.17619085822105 1454.3815626198884 493.068681664675L1454.3815626198884 493.068681664675Q1454.3815626198884 493.961172471129 1453.2736429980837 493.961172471129L1453.2736429980837 493.961172471129Q1445.0873480147475 493.961172471129 1445.0873480147475 481.98948544662585L1445.0873480147475 481.98948544662585Q1445.0873480147475 464.90905794380006 1463.0294907789767 431.0251828435997L1463.0294907789767 431.0251828435997Q1469.6770085098065 418.37643382799354 1477.0939148668895 406.43552234854053Q1484.5108212239725 394.4638353240374 1492.5124629370075 383.38463910598824L1492.5124629370075 383.38463910598824L1500.6987579203442 371.62838089683606Q1506.9154180204714 364.08837235955264 1511.5625253230423 364.08837235955264L1511.5625253230423 364.08837235955264Q1516.8866946167159 364.08837235955264 1516.8866946167159 366.76584477891447L1516.8866946167159 366.76584477891447Q1516.8866946167159 366.9812735942654 1516.2096326256133 368.0891932160704L1516.2096326256133 368.0891932160704Q1514.424651012705 370.08960364432926 1509.9929725254851 374.85981312710044Q1505.5612940382657 379.59924706482144 1502.483739533252 383.6000679213392L1502.483739533252 383.6000679213392Q1495.8362218024226 391.78636290467557 1489.1887040715928 401.32678187021787Q1482.5411863407635 410.86720083576023 1476.3245262406358 421.0539062473554L1476.3245262406358 421.0539062473554Q1461.2445091660688 446.07442437311647 1456.8128306788494 461.8315034387864L1456.8128306788494 461.8315034387864Q1459.4903030982114 456.9381917758147 1463.1525929591776 451.73712466234156Q1466.7841072750934 446.5360575488685 1470.3540705009095 442.7506655077017L1470.3540705009095 442.7506655077017Q1481.1870623585573 430.5635496678476 1489.1887040715928 430.5635496678476L1489.1887040715928 430.5635496678476Q1495.8362218024226 430.5635496678476 1495.8362218024226 440.10396863338997L1495.8362218024226 440.10396863338997Q1495.8362218024226 453.61443291039996 1487.188293643334 471.3411468592786L1487.188293643334 471.3411468592786Q1481.1870623585573 483.5282626991327 1472.108276568767 492.17619085822105L1472.108276568767 492.17619085822105Q1461.0290803507182 502.57832508516725 1449.519026501967 502.57832508516725ZM1519.3179626756769 498.3928509583486L1519.3179626756769 498.3928509583486Q1508.8850529036804 498.3928509583486 1500.4833291049931 490.8528424210652L1500.4833291049931 490.8528424210652Q1491.835400945905 483.09740506843076 1491.835400945905 473.1261284721865L1491.835400945905 473.1261284721865Q1491.835400945905 466.694039556708 1495.3745886266702 466.694039556708L1495.3745886266702 466.694039556708Q1497.5904278702806 466.694039556708 1500.021695929241 469.8023696067718L1500.021695929241 469.8023696067718Q1503.1300259793052 467.1248971874099 1511.1008921472903 453.183575279698L1511.1008921472903 453.183575279698Q1514.6708553731064 447.1823439949214 1518.8563294999244 440.8733572596434Q1523.0725791717932 434.56437052436536 1527.965890834765 430.25579421734625Q1532.8284269526866 425.916442365277 1538.1525962463602 425.916442365277L1538.1525962463602 425.916442365277Q1542.368845918229 425.916442365277 1545.2309716078917 427.9168527935359L1545.2309716078917 427.9168527935359Q1548.5547304733068 429.91726322179477 1548.5547304733068 432.77938891145743L1548.5547304733068 432.77938891145743Q1548.5547304733068 434.56437052436536 1543.4767655400337 434.56437052436536L1543.4767655400337 434.56437052436536Q1538.5834538770623 434.56437052436536 1534.1517753898424 437.6727005744292L1534.1517753898424 437.6727005744292Q1529.935525717974 440.99645943984393 1529.935525717974 445.8589955577655L1529.935525717974 445.8589955577655Q1529.935525717974 447.64397717067345 1530.6125877090767 449.6443875989323L1530.6125877090767 449.6443875989323L1536.1521858181013 464.0473426823962Q1537.9371674310091 468.2328168092148 1538.4911272419117 472.110535485532Q1539.0450870528143 475.9882541618492 1539.0450870528143 479.096584211913L1539.0450870528143 479.096584211913Q1551.878489338721 477.09617378365414 1560.9572751285114 466.016977565605L1560.9572751285114 466.016977565605Q1561.4189083042638 465.3706911195521 1562.0651947503166 465.3706911195521L1562.0651947503166 465.3706911195521Q1563.4193187325222 465.3706911195521 1563.4193187325222 467.1248971874099L1563.4193187325222 467.1248971874099Q1563.4193187325222 467.58653036316196 1563.2962165523218 468.01738799386385Q1563.1731143721213 468.47902116961586 1562.9576855567702 468.9098788003178L1562.9576855567702 468.9098788003178Q1555.6638813798882 480.41993264906887 1538.3680250617113 483.74369151448366L1538.3680250617113 483.74369151448366Q1537.6909630706082 487.3136547402995 1535.9367570027507 489.9603516146112Q1534.1517753898424 492.60704848892294 1531.7205073308814 494.39203010183087L1531.7205073308814 494.39203010183087Q1526.1809092218568 498.3928509583486 1519.3179626756769 498.3928509583486ZM1531.2896497001798 480.2045038337179L1531.2896497001798 480.2045038337179L1531.2896497001798 477.9886645901081Q1531.2896497001798 475.55739653114733 1530.2740567135252 471.3411468592786Q1529.289239271921 467.1248971874099 1527.288828843662 460.47737945658037L1527.288828843662 460.47737945658037Q1525.2884184154032 453.8298617257509 1524.303600973799 448.4133657969268Q1523.2880079871443 442.9968698681028 1523.5342123475452 441.4273170705458L1523.5342123475452 441.4273170705458Q1517.7484098781197 450.75230722073724 1512.1164851339445 459.0617043842741Q1506.4537848447194 467.371101547811 1502.0221063575 472.44906648108355L1502.0221063575 472.44906648108355Q1508.8850529036804 475.7728253464983 1516.640490256315 477.77323577475715Q1524.3959276089495 479.773646203016 1531.2896497001798 480.2045038337179ZM1516.4250614409639 492.17619085822105L1516.4250614409639 492.17619085822105Q1520.8567399281837 492.17619085822105 1525.1960917802526 490.5143114255137Q1529.504668087272 488.8524319928063 1531.0434453397788 484.4207535055866L1531.0434453397788 484.4207535055866Q1521.0721687435343 484.4207535055866 1512.5473427646466 482.42034307732774Q1504.0225167857589 480.41993264906887 1498.9137763074364 476.2344585222503L1498.9137763074364 476.2344585222503L1497.5904278702806 477.5578069594062Q1503.5916591550567 492.17619085822105 1516.4250614409639 492.17619085822105ZM1579.7919086991951 436.7802097679752L1579.7919086991951 436.7802097679752Q1574.4985149505715 436.7802097679752 1574.4985149505715 431.4560404743016L1574.4985149505715 431.4560404743016Q1574.4985149505715 428.80934359998986 1576.4681498337804 426.8089331717309L1576.4681498337804 426.8089331717309Q1578.68398907739 424.5930939281211 1581.576890312103 424.5930939281211L1581.576890312103 424.5930939281211Q1586.9010596057765 424.5930939281211 1586.9010596057765 429.91726322179477L1586.9010596057765 429.91726322179477Q1586.9010596057765 432.5639600961065 1584.9006491775176 434.56437052436536L1584.9006491775176 434.56437052436536Q1582.6848099339077 436.7802097679752 1579.7919086991951 436.7802097679752ZM1566.958506413288 497.03872697614264L1566.958506413288 497.03872697614264Q1554.771390573434 497.03872697614264 1554.771390573434 483.9898958748847L1554.771390573434 483.9898958748847Q1554.771390573434 477.77323577475715 1559.203069060654 465.801548750254L1559.203069060654 465.801548750254Q1561.2034794889128 460.2619506412294 1563.2962165523218 456.3842319649122Q1565.3889536157312 452.506513288595 1567.6047928593412 449.18275442318026L1567.6047928593412 449.18275442318026Q1568.9589168415469 447.1823439949214 1570.7131229094048 447.1823439949214L1570.7131229094048 447.1823439949214Q1572.4981045223126 447.1823439949214 1574.2523105901705 448.9673256078293L1574.2523105901705 448.9673256078293Q1575.3602302119752 450.0752452296342 1575.3602302119752 451.86022684254215L1575.3602302119752 451.86022684254215Q1575.3602302119752 453.39900409504895 1574.4985149505715 454.9377813475558L1574.4985149505715 454.9377813475558Q1569.6052032876 462.47778988483924 1566.496873237536 470.1409006023233Q1563.4193187325222 477.77323577475715 1563.4193187325222 483.74369151448366L1563.4193187325222 483.74369151448366Q1563.4193187325222 491.74533322751915 1569.174345656898 491.74533322751915L1569.174345656898 491.74533322751915Q1572.282675706962 491.74533322751915 1576.2527210184294 490.08345379481176Q1580.2535418749471 488.42157436210437 1584.2235871864145 484.85161113628857L1584.2235871864145 484.85161113628857Q1586.9010596057765 482.42034307732774 1589.88628747564 479.31201302726396Q1592.8715153455032 476.2344585222503 1595.9798453955668 472.0182088503816L1595.9798453955668 472.0182088503816Q1601.7348723199425 464.90905794380006 1601.7348723199425 464.90905794380006L1601.7348723199425 464.90905794380006Q1602.8427919417472 464.90905794380006 1602.8427919417472 466.694039556708L1602.8427919417472 466.694039556708Q1602.8427919417472 468.47902116961586 1601.3040146892404 470.23322723747367L1601.3040146892404 470.23322723747367Q1581.1460326814013 497.03872697614264 1566.958506413288 497.03872697614264ZM1612.5986397226407 494.39203010183087L1612.5986397226407 494.39203010183087Q1605.7356931764602 494.39203010183087 1602.8427919417472 489.7449227992603Q1599.9806662520846 485.0978154966897 1599.9806662520846 478.20409340545905L1599.9806662520846 478.20409340545905Q1599.9806662520846 469.8023696067718 1602.8427919417472 460.60048163678096Q1605.7356931764602 451.3985936667901 1609.059452041875 445.4281379270636L1609.059452041875 445.4281379270636L1607.7361036047191 445.4281379270636Q1599.9806662520846 445.4281379270636 1597.4262960129236 444.19711612505813Q1594.871925773762 442.9968698681028 1594.871925773762 440.10396863338997L1594.871925773762 440.10396863338997Q1594.871925773762 438.5651913808831 1597.3031938327226 438.5651913808831L1597.3031938327226 438.5651913808831L1611.490720100836 439.42690664228695Q1617.0303182098605 428.3477104242378 1622.6930184990856 418.8380670037456Q1628.3249432432603 409.29764803820325 1632.1103352844275 405.54303154208657L1632.1103352844275 405.54303154208657Q1635.1878897894408 402.4347014920228 1640.7274878984654 402.4347014920228L1640.7274878984654 402.4347014920228Q1645.6207995614373 402.4347014920228 1645.6207995614373 404.43511192028166L1645.6207995614373 404.43511192028166Q1645.6207995614373 404.86596955098355 1645.4053707460862 405.08139836633455L1645.4053707460862 405.08139836633455L1635.8649517805438 416.4067989447848Q1632.5411929151292 420.3768442562524 1628.5403720586114 426.59350435638Q1624.570326747144 432.77938891145743 1620.5695058906263 439.888539818039L1620.5695058906263 439.888539818039Q1623.0007739495868 440.10396863338997 1625.1242865580462 440.10396863338997Q1627.2170236214556 440.10396863338997 1628.7865764190124 440.10396863338997L1628.7865764190124 440.10396863338997Q1629.6482916804162 440.10396863338997 1630.7562113022213 439.98086645318944Q1631.864130924026 439.888539818039 1633.4336837215833 439.888539818039L1633.4336837215833 439.888539818039L1638.0807910241538 439.888539818039Q1640.7274878984654 439.888539818039 1640.7274878984654 441.2118882551949L1640.7274878984654 441.2118882551949Q1640.7274878984654 444.5356471206096 1617.9228090163142 445.2127091117126L1617.9228090163142 445.2127091117126Q1615.4915409573537 449.8598164142833 1613.0294973533428 455.9533743342103Q1610.5982292943818 462.04693225413735 1609.1517786770255 468.01738799386385Q1607.7361036047191 474.0186192786405 1607.7361036047191 478.88115539656206L1607.7361036047191 478.88115539656206Q1607.7361036047191 489.06786080815726 1616.3532562187575 489.06786080815726L1616.3532562187575 489.06786080815726Q1623.4624071253388 489.06786080815726 1632.9720505458313 480.41993264906887L1632.9720505458313 480.41993264906887Q1636.757442586998 476.8807449683032 1639.52724164151 473.2184551073369Q1642.2970406960226 469.58694079142083 1644.9437375703342 465.801548750254L1644.9437375703342 465.801548750254Q1646.2670860074904 463.80113832199515 1647.3750056292952 463.80113832199515L1647.3750056292952 463.80113832199515Q1648.4829252511 463.80113832199515 1648.4829252511 465.15526230420113L1648.4829252511 465.15526230420113Q1648.4829252511 466.016977565605 1648.1751698005987 466.8171417369085Q1647.8366388050472 467.58653036316196 1647.6212099896961 468.01738799386385L1647.6212099896961 468.01738799386385Q1644.7283087549836 471.80278003503065 1641.281447709368 476.2344585222503Q1637.8653622088027 480.66613700947 1633.2182549062322 484.85161113628857L1633.2182549062322 484.85161113628857Q1622.3544875035336 494.39203010183087 1612.5986397226407 494.39203010183087ZM1657.8079154012917 494.6074589171818L1657.8079154012917 494.6074589171818Q1650.4833356793588 494.6074589171818 1644.9437375703342 490.3912092453131Q1639.4041394613096 486.20573511849454 1639.4041394613096 476.2344585222503L1639.4041394613096 476.2344585222503Q1639.4041394613096 470.23322723747367 1642.0816118806715 463.24717851109267Q1644.7283087549836 456.29190532976185 1649.2830894224035 450.0752452296342Q1653.8070945447735 443.85858512950665 1659.346692653798 439.888539818039Q1664.8862907628227 435.8877189615213 1670.6413176871984 435.8877189615213L1670.6413176871984 435.8877189615213Q1672.8571569308083 435.8877189615213 1674.5190363635156 437.45727175907825Q1676.180915796223 438.99604901158506 1676.180915796223 442.10437906164884L1676.180915796223 442.10437906164884Q1676.180915796223 448.9673256078293 1665.7787815692768 458.72317338872256L1665.7787815692768 458.72317338872256Q1661.562531897408 462.6932187001902 1657.038526775038 465.801548750254Q1652.4837461076177 468.9098788003178 1648.7291296115009 470.23322723747367L1648.7291296115009 470.23322723747367Q1647.8366388050472 473.1261284721865 1647.8366388050472 476.8807449683032L1647.8366388050472 476.8807449683032Q1647.8366388050472 481.98948544662585 1650.2679068640077 486.20573511849454Q1652.6991749229687 490.3912092453131 1658.0233442166423 490.3912092453131L1658.0233442166423 490.3912092453131Q1664.6708619474716 490.3912092453131 1670.2104600564962 486.6365927491965Q1675.7500581655208 482.8819762530798 1680.3971654680913 477.4347047792056Q1685.0442727706622 472.0182088503816 1688.6142359964779 467.371101547811L1688.6142359964779 467.371101547811Q1690.1530132489847 465.15526230420113 1691.6917905014916 465.15526230420113L1691.6917905014916 465.15526230420113Q1692.5842813079457 465.15526230420113 1692.5842813079457 466.016977565605L1692.5842813079457 466.016977565605Q1692.5842813079457 466.478610741357 1692.3688524925947 467.0325705522595Q1692.1534236772436 467.58653036316196 1691.937994861893 468.01738799386385L1691.937994861893 468.01738799386385Q1688.1526028207259 473.34155728753746 1683.2900667028043 479.5582173876651Q1678.396755039833 485.74410194274253 1672.210870484755 490.1757804299622Q1665.9942103846279 494.6074589171818 1657.8079154012917 494.6074589171818ZM1650.2679068640077 465.801548750254L1650.2679068640077 465.801548750254Q1656.0229337883834 463.3702806912932 1662.239593888511 457.15362059116563L1662.239593888511 457.15362059116563Q1669.5333980653936 450.0752452296342 1669.5333980653936 444.75107593596056L1669.5333980653936 444.75107593596056Q1669.5333980653936 442.10437906164884 1666.8867011910816 442.10437906164884L1666.8867011910816 442.10437906164884Q1663.3475135103158 442.10437906164884 1657.1308534101881 452.29108447324404L1657.1308534101881 452.29108447324404Q1651.5912553011635 460.7235838169815 1650.2679068640077 465.801548750254Z " fill="#ffc800" transform="matrix(0.5169609728963185,0,0,0.5169609728963185,0,77.35181065403097)"/></g></svg>